G04 #@! TF.FileFunction,Other,Fab,Top*
%FSLAX46Y46*%
G04 Gerber Fmt 4.6, Leading zero omitted, Abs format (unit mm)*
G04 Created by KiCad (PCBNEW 4.0.2-stable) date Friday, April 10, 2020 'PMt' 07:46:05 PM*
%MOMM*%
G01*
G04 APERTURE LIST*
%ADD10C,0.100000*%
%ADD11C,0.150000*%
G04 APERTURE END LIST*
D10*
D11*
X5092381Y13914524D02*
X4092381Y13914524D01*
X5044762Y13914524D02*
X5092381Y13819286D01*
X5092381Y13628809D01*
X5044762Y13533571D01*
X4997143Y13485952D01*
X4901905Y13438333D01*
X4616190Y13438333D01*
X4520952Y13485952D01*
X4473333Y13533571D01*
X4425714Y13628809D01*
X4425714Y13819286D01*
X4473333Y13914524D01*
X4425714Y14390714D02*
X5092381Y14390714D01*
X4520952Y14390714D02*
X4473333Y14438333D01*
X4425714Y14533571D01*
X4425714Y14676429D01*
X4473333Y14771667D01*
X4568571Y14819286D01*
X5092381Y14819286D01*
X4425714Y15295476D02*
X5425714Y15295476D01*
X4473333Y15295476D02*
X4425714Y15390714D01*
X4425714Y15581191D01*
X4473333Y15676429D01*
X4520952Y15724048D01*
X4616190Y15771667D01*
X4901905Y15771667D01*
X4997143Y15724048D01*
X5044762Y15676429D01*
X5092381Y15581191D01*
X5092381Y15390714D01*
X5044762Y15295476D01*
X12712381Y13914524D02*
X11712381Y13914524D01*
X12664762Y13914524D02*
X12712381Y13819286D01*
X12712381Y13628809D01*
X12664762Y13533571D01*
X12617143Y13485952D01*
X12521905Y13438333D01*
X12236190Y13438333D01*
X12140952Y13485952D01*
X12093333Y13533571D01*
X12045714Y13628809D01*
X12045714Y13819286D01*
X12093333Y13914524D01*
X12045714Y14390714D02*
X12712381Y14390714D01*
X12140952Y14390714D02*
X12093333Y14438333D01*
X12045714Y14533571D01*
X12045714Y14676429D01*
X12093333Y14771667D01*
X12188571Y14819286D01*
X12712381Y14819286D01*
X12045714Y15295476D02*
X13045714Y15295476D01*
X12093333Y15295476D02*
X12045714Y15390714D01*
X12045714Y15581191D01*
X12093333Y15676429D01*
X12140952Y15724048D01*
X12236190Y15771667D01*
X12521905Y15771667D01*
X12617143Y15724048D01*
X12664762Y15676429D01*
X12712381Y15581191D01*
X12712381Y15390714D01*
X12664762Y15295476D01*
X-1483809Y16862857D02*
X-1531428Y16815238D01*
X-1674285Y16767619D01*
X-1769523Y16767619D01*
X-1912381Y16815238D01*
X-2007619Y16910476D01*
X-2055238Y17005714D01*
X-2102857Y17196190D01*
X-2102857Y17339048D01*
X-2055238Y17529524D01*
X-2007619Y17624762D01*
X-1912381Y17720000D01*
X-1769523Y17767619D01*
X-1674285Y17767619D01*
X-1531428Y17720000D01*
X-1483809Y17672381D01*
X-864762Y17767619D02*
X-674285Y17767619D01*
X-579047Y17720000D01*
X-483809Y17624762D01*
X-436190Y17434286D01*
X-436190Y17100952D01*
X-483809Y16910476D01*
X-579047Y16815238D01*
X-674285Y16767619D01*
X-864762Y16767619D01*
X-960000Y16815238D01*
X-1055238Y16910476D01*
X-1102857Y17100952D01*
X-1102857Y17434286D01*
X-1055238Y17624762D01*
X-960000Y17720000D01*
X-864762Y17767619D01*
X-7619Y16767619D02*
X-7619Y17767619D01*
X563810Y16767619D01*
X563810Y17767619D01*
X1040000Y16767619D02*
X1040000Y17767619D01*
X1611429Y16767619D01*
X1611429Y17767619D01*
X1849524Y16672381D02*
X2611429Y16672381D01*
X3040000Y17767619D02*
X3135239Y17767619D01*
X3230477Y17720000D01*
X3278096Y17672381D01*
X3325715Y17577143D01*
X3373334Y17386667D01*
X3373334Y17148571D01*
X3325715Y16958095D01*
X3278096Y16862857D01*
X3230477Y16815238D01*
X3135239Y16767619D01*
X3040000Y16767619D01*
X2944762Y16815238D01*
X2897143Y16862857D01*
X2849524Y16958095D01*
X2801905Y17148571D01*
X2801905Y17386667D01*
X2849524Y17577143D01*
X2897143Y17672381D01*
X2944762Y17720000D01*
X3040000Y17767619D01*
X4325715Y16767619D02*
X3754286Y16767619D01*
X4040000Y16767619D02*
X4040000Y17767619D01*
X3944762Y17624762D01*
X3849524Y17529524D01*
X3754286Y17481905D01*
X4659048Y17767619D02*
X5325715Y16767619D01*
X5325715Y17767619D02*
X4659048Y16767619D01*
X5897143Y17767619D02*
X5992382Y17767619D01*
X6087620Y17720000D01*
X6135239Y17672381D01*
X6182858Y17577143D01*
X6230477Y17386667D01*
X6230477Y17148571D01*
X6182858Y16958095D01*
X6135239Y16862857D01*
X6087620Y16815238D01*
X5992382Y16767619D01*
X5897143Y16767619D01*
X5801905Y16815238D01*
X5754286Y16862857D01*
X5706667Y16958095D01*
X5659048Y17148571D01*
X5659048Y17386667D01*
X5706667Y17577143D01*
X5754286Y17672381D01*
X5801905Y17720000D01*
X5897143Y17767619D01*
X6563810Y17767619D02*
X7182858Y17767619D01*
X6849524Y17386667D01*
X6992382Y17386667D01*
X7087620Y17339048D01*
X7135239Y17291429D01*
X7182858Y17196190D01*
X7182858Y16958095D01*
X7135239Y16862857D01*
X7087620Y16815238D01*
X6992382Y16767619D01*
X6706667Y16767619D01*
X6611429Y16815238D01*
X6563810Y16862857D01*
X6136191Y16862857D02*
X6088572Y16815238D01*
X5945715Y16767619D01*
X5850477Y16767619D01*
X5707619Y16815238D01*
X5612381Y16910476D01*
X5564762Y17005714D01*
X5517143Y17196190D01*
X5517143Y17339048D01*
X5564762Y17529524D01*
X5612381Y17624762D01*
X5707619Y17720000D01*
X5850477Y17767619D01*
X5945715Y17767619D01*
X6088572Y17720000D01*
X6136191Y17672381D01*
X6755238Y17767619D02*
X6945715Y17767619D01*
X7040953Y17720000D01*
X7136191Y17624762D01*
X7183810Y17434286D01*
X7183810Y17100952D01*
X7136191Y16910476D01*
X7040953Y16815238D01*
X6945715Y16767619D01*
X6755238Y16767619D01*
X6660000Y16815238D01*
X6564762Y16910476D01*
X6517143Y17100952D01*
X6517143Y17434286D01*
X6564762Y17624762D01*
X6660000Y17720000D01*
X6755238Y17767619D01*
X7612381Y16767619D02*
X7612381Y17767619D01*
X8183810Y16767619D01*
X8183810Y17767619D01*
X8660000Y16767619D02*
X8660000Y17767619D01*
X9231429Y16767619D01*
X9231429Y17767619D01*
X9469524Y16672381D02*
X10231429Y16672381D01*
X10660000Y17767619D02*
X10755239Y17767619D01*
X10850477Y17720000D01*
X10898096Y17672381D01*
X10945715Y17577143D01*
X10993334Y17386667D01*
X10993334Y17148571D01*
X10945715Y16958095D01*
X10898096Y16862857D01*
X10850477Y16815238D01*
X10755239Y16767619D01*
X10660000Y16767619D01*
X10564762Y16815238D01*
X10517143Y16862857D01*
X10469524Y16958095D01*
X10421905Y17148571D01*
X10421905Y17386667D01*
X10469524Y17577143D01*
X10517143Y17672381D01*
X10564762Y17720000D01*
X10660000Y17767619D01*
X11945715Y16767619D02*
X11374286Y16767619D01*
X11660000Y16767619D02*
X11660000Y17767619D01*
X11564762Y17624762D01*
X11469524Y17529524D01*
X11374286Y17481905D01*
X12279048Y17767619D02*
X12945715Y16767619D01*
X12945715Y17767619D02*
X12279048Y16767619D01*
X13517143Y17767619D02*
X13612382Y17767619D01*
X13707620Y17720000D01*
X13755239Y17672381D01*
X13802858Y17577143D01*
X13850477Y17386667D01*
X13850477Y17148571D01*
X13802858Y16958095D01*
X13755239Y16862857D01*
X13707620Y16815238D01*
X13612382Y16767619D01*
X13517143Y16767619D01*
X13421905Y16815238D01*
X13374286Y16862857D01*
X13326667Y16958095D01*
X13279048Y17148571D01*
X13279048Y17386667D01*
X13326667Y17577143D01*
X13374286Y17672381D01*
X13421905Y17720000D01*
X13517143Y17767619D01*
X14183810Y17767619D02*
X14802858Y17767619D01*
X14469524Y17386667D01*
X14612382Y17386667D01*
X14707620Y17339048D01*
X14755239Y17291429D01*
X14802858Y17196190D01*
X14802858Y16958095D01*
X14755239Y16862857D01*
X14707620Y16815238D01*
X14612382Y16767619D01*
X14326667Y16767619D01*
X14231429Y16815238D01*
X14183810Y16862857D01*
X-1483809Y-917143D02*
X-1531428Y-964762D01*
X-1674285Y-1012381D01*
X-1769523Y-1012381D01*
X-1912381Y-964762D01*
X-2007619Y-869524D01*
X-2055238Y-774286D01*
X-2102857Y-583810D01*
X-2102857Y-440952D01*
X-2055238Y-250476D01*
X-2007619Y-155238D01*
X-1912381Y-60000D01*
X-1769523Y-12381D01*
X-1674285Y-12381D01*
X-1531428Y-60000D01*
X-1483809Y-107619D01*
X-864762Y-12381D02*
X-674285Y-12381D01*
X-579047Y-60000D01*
X-483809Y-155238D01*
X-436190Y-345714D01*
X-436190Y-679048D01*
X-483809Y-869524D01*
X-579047Y-964762D01*
X-674285Y-1012381D01*
X-864762Y-1012381D01*
X-960000Y-964762D01*
X-1055238Y-869524D01*
X-1102857Y-679048D01*
X-1102857Y-345714D01*
X-1055238Y-155238D01*
X-960000Y-60000D01*
X-864762Y-12381D01*
X-7619Y-1012381D02*
X-7619Y-12381D01*
X563810Y-1012381D01*
X563810Y-12381D01*
X1040000Y-1012381D02*
X1040000Y-12381D01*
X1611429Y-1012381D01*
X1611429Y-12381D01*
X1849524Y-1107619D02*
X2611429Y-1107619D01*
X3040000Y-12381D02*
X3135239Y-12381D01*
X3230477Y-60000D01*
X3278096Y-107619D01*
X3325715Y-202857D01*
X3373334Y-393333D01*
X3373334Y-631429D01*
X3325715Y-821905D01*
X3278096Y-917143D01*
X3230477Y-964762D01*
X3135239Y-1012381D01*
X3040000Y-1012381D01*
X2944762Y-964762D01*
X2897143Y-917143D01*
X2849524Y-821905D01*
X2801905Y-631429D01*
X2801905Y-393333D01*
X2849524Y-202857D01*
X2897143Y-107619D01*
X2944762Y-60000D01*
X3040000Y-12381D01*
X4325715Y-1012381D02*
X3754286Y-1012381D01*
X4040000Y-1012381D02*
X4040000Y-12381D01*
X3944762Y-155238D01*
X3849524Y-250476D01*
X3754286Y-298095D01*
X4659048Y-12381D02*
X5325715Y-1012381D01*
X5325715Y-12381D02*
X4659048Y-1012381D01*
X5897143Y-12381D02*
X5992382Y-12381D01*
X6087620Y-60000D01*
X6135239Y-107619D01*
X6182858Y-202857D01*
X6230477Y-393333D01*
X6230477Y-631429D01*
X6182858Y-821905D01*
X6135239Y-917143D01*
X6087620Y-964762D01*
X5992382Y-1012381D01*
X5897143Y-1012381D01*
X5801905Y-964762D01*
X5754286Y-917143D01*
X5706667Y-821905D01*
X5659048Y-631429D01*
X5659048Y-393333D01*
X5706667Y-202857D01*
X5754286Y-107619D01*
X5801905Y-60000D01*
X5897143Y-12381D01*
X6563810Y-12381D02*
X7182858Y-12381D01*
X6849524Y-393333D01*
X6992382Y-393333D01*
X7087620Y-440952D01*
X7135239Y-488571D01*
X7182858Y-583810D01*
X7182858Y-821905D01*
X7135239Y-917143D01*
X7087620Y-964762D01*
X6992382Y-1012381D01*
X6706667Y-1012381D01*
X6611429Y-964762D01*
X6563810Y-917143D01*
X6136191Y-917143D02*
X6088572Y-964762D01*
X5945715Y-1012381D01*
X5850477Y-1012381D01*
X5707619Y-964762D01*
X5612381Y-869524D01*
X5564762Y-774286D01*
X5517143Y-583810D01*
X5517143Y-440952D01*
X5564762Y-250476D01*
X5612381Y-155238D01*
X5707619Y-60000D01*
X5850477Y-12381D01*
X5945715Y-12381D01*
X6088572Y-60000D01*
X6136191Y-107619D01*
X6755238Y-12381D02*
X6945715Y-12381D01*
X7040953Y-60000D01*
X7136191Y-155238D01*
X7183810Y-345714D01*
X7183810Y-679048D01*
X7136191Y-869524D01*
X7040953Y-964762D01*
X6945715Y-1012381D01*
X6755238Y-1012381D01*
X6660000Y-964762D01*
X6564762Y-869524D01*
X6517143Y-679048D01*
X6517143Y-345714D01*
X6564762Y-155238D01*
X6660000Y-60000D01*
X6755238Y-12381D01*
X7612381Y-1012381D02*
X7612381Y-12381D01*
X8183810Y-1012381D01*
X8183810Y-12381D01*
X8660000Y-1012381D02*
X8660000Y-12381D01*
X9231429Y-1012381D01*
X9231429Y-12381D01*
X9469524Y-1107619D02*
X10231429Y-1107619D01*
X10660000Y-12381D02*
X10755239Y-12381D01*
X10850477Y-60000D01*
X10898096Y-107619D01*
X10945715Y-202857D01*
X10993334Y-393333D01*
X10993334Y-631429D01*
X10945715Y-821905D01*
X10898096Y-917143D01*
X10850477Y-964762D01*
X10755239Y-1012381D01*
X10660000Y-1012381D01*
X10564762Y-964762D01*
X10517143Y-917143D01*
X10469524Y-821905D01*
X10421905Y-631429D01*
X10421905Y-393333D01*
X10469524Y-202857D01*
X10517143Y-107619D01*
X10564762Y-60000D01*
X10660000Y-12381D01*
X11945715Y-1012381D02*
X11374286Y-1012381D01*
X11660000Y-1012381D02*
X11660000Y-12381D01*
X11564762Y-155238D01*
X11469524Y-250476D01*
X11374286Y-298095D01*
X12279048Y-12381D02*
X12945715Y-1012381D01*
X12945715Y-12381D02*
X12279048Y-1012381D01*
X13517143Y-12381D02*
X13612382Y-12381D01*
X13707620Y-60000D01*
X13755239Y-107619D01*
X13802858Y-202857D01*
X13850477Y-393333D01*
X13850477Y-631429D01*
X13802858Y-821905D01*
X13755239Y-917143D01*
X13707620Y-964762D01*
X13612382Y-1012381D01*
X13517143Y-1012381D01*
X13421905Y-964762D01*
X13374286Y-917143D01*
X13326667Y-821905D01*
X13279048Y-631429D01*
X13279048Y-393333D01*
X13326667Y-202857D01*
X13374286Y-107619D01*
X13421905Y-60000D01*
X13517143Y-12381D01*
X14183810Y-12381D02*
X14802858Y-12381D01*
X14469524Y-393333D01*
X14612382Y-393333D01*
X14707620Y-440952D01*
X14755239Y-488571D01*
X14802858Y-583810D01*
X14802858Y-821905D01*
X14755239Y-917143D01*
X14707620Y-964762D01*
X14612382Y-1012381D01*
X14326667Y-1012381D01*
X14231429Y-964762D01*
X14183810Y-917143D01*
X7632381Y17502381D02*
X6632381Y17502381D01*
X7584762Y17502381D02*
X7632381Y17407143D01*
X7632381Y17216666D01*
X7584762Y17121428D01*
X7537143Y17073809D01*
X7441905Y17026190D01*
X7156190Y17026190D01*
X7060952Y17073809D01*
X7013333Y17121428D01*
X6965714Y17216666D01*
X6965714Y17407143D01*
X7013333Y17502381D01*
X6965714Y17978571D02*
X7632381Y17978571D01*
X7060952Y17978571D02*
X7013333Y18026190D01*
X6965714Y18121428D01*
X6965714Y18264286D01*
X7013333Y18359524D01*
X7108571Y18407143D01*
X7632381Y18407143D01*
X6965714Y18883333D02*
X7965714Y18883333D01*
X7013333Y18883333D02*
X6965714Y18978571D01*
X6965714Y19169048D01*
X7013333Y19264286D01*
X7060952Y19311905D01*
X7156190Y19359524D01*
X7441905Y19359524D01*
X7537143Y19311905D01*
X7584762Y19264286D01*
X7632381Y19169048D01*
X7632381Y18978571D01*
X7584762Y18883333D01*
X7727619Y19550000D02*
X7727619Y20311905D01*
X6632381Y20740476D02*
X6632381Y20835715D01*
X6680000Y20930953D01*
X6727619Y20978572D01*
X6822857Y21026191D01*
X7013333Y21073810D01*
X7251429Y21073810D01*
X7441905Y21026191D01*
X7537143Y20978572D01*
X7584762Y20930953D01*
X7632381Y20835715D01*
X7632381Y20740476D01*
X7584762Y20645238D01*
X7537143Y20597619D01*
X7441905Y20550000D01*
X7251429Y20502381D01*
X7013333Y20502381D01*
X6822857Y20550000D01*
X6727619Y20597619D01*
X6680000Y20645238D01*
X6632381Y20740476D01*
X10172381Y17502381D02*
X9172381Y17502381D01*
X10124762Y17502381D02*
X10172381Y17407143D01*
X10172381Y17216666D01*
X10124762Y17121428D01*
X10077143Y17073809D01*
X9981905Y17026190D01*
X9696190Y17026190D01*
X9600952Y17073809D01*
X9553333Y17121428D01*
X9505714Y17216666D01*
X9505714Y17407143D01*
X9553333Y17502381D01*
X9505714Y17978571D02*
X10172381Y17978571D01*
X9600952Y17978571D02*
X9553333Y18026190D01*
X9505714Y18121428D01*
X9505714Y18264286D01*
X9553333Y18359524D01*
X9648571Y18407143D01*
X10172381Y18407143D01*
X9505714Y18883333D02*
X10505714Y18883333D01*
X9553333Y18883333D02*
X9505714Y18978571D01*
X9505714Y19169048D01*
X9553333Y19264286D01*
X9600952Y19311905D01*
X9696190Y19359524D01*
X9981905Y19359524D01*
X10077143Y19311905D01*
X10124762Y19264286D01*
X10172381Y19169048D01*
X10172381Y18978571D01*
X10124762Y18883333D01*
X10267619Y19550000D02*
X10267619Y20311905D01*
X9172381Y20740476D02*
X9172381Y20835715D01*
X9220000Y20930953D01*
X9267619Y20978572D01*
X9362857Y21026191D01*
X9553333Y21073810D01*
X9791429Y21073810D01*
X9981905Y21026191D01*
X10077143Y20978572D01*
X10124762Y20930953D01*
X10172381Y20835715D01*
X10172381Y20740476D01*
X10124762Y20645238D01*
X10077143Y20597619D01*
X9981905Y20550000D01*
X9791429Y20502381D01*
X9553333Y20502381D01*
X9362857Y20550000D01*
X9267619Y20597619D01*
X9220000Y20645238D01*
X9172381Y20740476D01*
X2232381Y22810000D02*
X2232381Y22905239D01*
X2280000Y23000477D01*
X2327619Y23048096D01*
X2422857Y23095715D01*
X2613333Y23143334D01*
X2851429Y23143334D01*
X3041905Y23095715D01*
X3137143Y23048096D01*
X3184762Y23000477D01*
X3232381Y22905239D01*
X3232381Y22810000D01*
X3184762Y22714762D01*
X3137143Y22667143D01*
X3041905Y22619524D01*
X2851429Y22571905D01*
X2613333Y22571905D01*
X2422857Y22619524D01*
X2327619Y22667143D01*
X2280000Y22714762D01*
X2232381Y22810000D01*
X3232381Y24143334D02*
X2756190Y23810000D01*
X3232381Y23571905D02*
X2232381Y23571905D01*
X2232381Y23952858D01*
X2280000Y24048096D01*
X2327619Y24095715D01*
X2422857Y24143334D01*
X2565714Y24143334D01*
X2660952Y24095715D01*
X2708571Y24048096D01*
X2756190Y23952858D01*
X2756190Y23571905D01*
X3232381Y25095715D02*
X3232381Y24524286D01*
X3232381Y24810000D02*
X2232381Y24810000D01*
X2375238Y24714762D01*
X2470476Y24619524D01*
X2518095Y24524286D01*
X2232381Y26000477D02*
X2232381Y25524286D01*
X2708571Y25476667D01*
X2660952Y25524286D01*
X2613333Y25619524D01*
X2613333Y25857620D01*
X2660952Y25952858D01*
X2708571Y26000477D01*
X2803810Y26048096D01*
X3041905Y26048096D01*
X3137143Y26000477D01*
X3184762Y25952858D01*
X3232381Y25857620D01*
X3232381Y25619524D01*
X3184762Y25524286D01*
X3137143Y25476667D01*
X4772381Y22810000D02*
X4772381Y22905239D01*
X4820000Y23000477D01*
X4867619Y23048096D01*
X4962857Y23095715D01*
X5153333Y23143334D01*
X5391429Y23143334D01*
X5581905Y23095715D01*
X5677143Y23048096D01*
X5724762Y23000477D01*
X5772381Y22905239D01*
X5772381Y22810000D01*
X5724762Y22714762D01*
X5677143Y22667143D01*
X5581905Y22619524D01*
X5391429Y22571905D01*
X5153333Y22571905D01*
X4962857Y22619524D01*
X4867619Y22667143D01*
X4820000Y22714762D01*
X4772381Y22810000D01*
X5772381Y24143334D02*
X5296190Y23810000D01*
X5772381Y23571905D02*
X4772381Y23571905D01*
X4772381Y23952858D01*
X4820000Y24048096D01*
X4867619Y24095715D01*
X4962857Y24143334D01*
X5105714Y24143334D01*
X5200952Y24095715D01*
X5248571Y24048096D01*
X5296190Y23952858D01*
X5296190Y23571905D01*
X5772381Y25095715D02*
X5772381Y24524286D01*
X5772381Y24810000D02*
X4772381Y24810000D01*
X4915238Y24714762D01*
X5010476Y24619524D01*
X5058095Y24524286D01*
X4772381Y26000477D02*
X4772381Y25524286D01*
X5248571Y25476667D01*
X5200952Y25524286D01*
X5153333Y25619524D01*
X5153333Y25857620D01*
X5200952Y25952858D01*
X5248571Y26000477D01*
X5343810Y26048096D01*
X5581905Y26048096D01*
X5677143Y26000477D01*
X5724762Y25952858D01*
X5772381Y25857620D01*
X5772381Y25619524D01*
X5724762Y25524286D01*
X5677143Y25476667D01*
X7632381Y2579762D02*
X7632381Y2008333D01*
X7632381Y2294047D02*
X6632381Y2294047D01*
X6775238Y2198809D01*
X6870476Y2103571D01*
X6918095Y2008333D01*
X6632381Y3198809D02*
X6632381Y3294048D01*
X6680000Y3389286D01*
X6727619Y3436905D01*
X6822857Y3484524D01*
X7013333Y3532143D01*
X7251429Y3532143D01*
X7441905Y3484524D01*
X7537143Y3436905D01*
X7584762Y3389286D01*
X7632381Y3294048D01*
X7632381Y3198809D01*
X7584762Y3103571D01*
X7537143Y3055952D01*
X7441905Y3008333D01*
X7251429Y2960714D01*
X7013333Y2960714D01*
X6822857Y3008333D01*
X6727619Y3055952D01*
X6680000Y3103571D01*
X6632381Y3198809D01*
X7632381Y3960714D02*
X6632381Y3960714D01*
X7251429Y4055952D02*
X7632381Y4341667D01*
X6965714Y4341667D02*
X7346667Y3960714D01*
X5972381Y3055953D02*
X5972381Y2484524D01*
X5972381Y2770238D02*
X4972381Y2770238D01*
X5115238Y2675000D01*
X5210476Y2579762D01*
X5258095Y2484524D01*
X5972381Y3484524D02*
X4972381Y3484524D01*
X5591429Y3579762D02*
X5972381Y3865477D01*
X5305714Y3865477D02*
X5686667Y3484524D01*
X3432381Y14009762D02*
X3432381Y13438333D01*
X3432381Y13724047D02*
X2432381Y13724047D01*
X2575238Y13628809D01*
X2670476Y13533571D01*
X2718095Y13438333D01*
X2432381Y14628809D02*
X2432381Y14724048D01*
X2480000Y14819286D01*
X2527619Y14866905D01*
X2622857Y14914524D01*
X2813333Y14962143D01*
X3051429Y14962143D01*
X3241905Y14914524D01*
X3337143Y14866905D01*
X3384762Y14819286D01*
X3432381Y14724048D01*
X3432381Y14628809D01*
X3384762Y14533571D01*
X3337143Y14485952D01*
X3241905Y14438333D01*
X3051429Y14390714D01*
X2813333Y14390714D01*
X2622857Y14438333D01*
X2527619Y14485952D01*
X2480000Y14533571D01*
X2432381Y14628809D01*
X3432381Y15390714D02*
X2432381Y15390714D01*
X3051429Y15485952D02*
X3432381Y15771667D01*
X2765714Y15771667D02*
X3146667Y15390714D01*
X10172381Y14485953D02*
X10172381Y13914524D01*
X10172381Y14200238D02*
X9172381Y14200238D01*
X9315238Y14105000D01*
X9410476Y14009762D01*
X9458095Y13914524D01*
X10172381Y14914524D02*
X9172381Y14914524D01*
X9791429Y15009762D02*
X10172381Y15295477D01*
X9505714Y15295477D02*
X9886667Y14914524D01*
X9352381Y5628096D02*
X9352381Y5151905D01*
X8352381Y5151905D01*
X9352381Y5961429D02*
X8352381Y5961429D01*
X9066667Y6294763D01*
X8352381Y6628096D01*
X9352381Y6628096D01*
X8352381Y6961429D02*
X9352381Y7294762D01*
X8352381Y7628096D01*
X8352381Y7866191D02*
X8352381Y8485239D01*
X8733333Y8151905D01*
X8733333Y8294763D01*
X8780952Y8390001D01*
X8828571Y8437620D01*
X8923810Y8485239D01*
X9161905Y8485239D01*
X9257143Y8437620D01*
X9304762Y8390001D01*
X9352381Y8294763D01*
X9352381Y8009048D01*
X9304762Y7913810D01*
X9257143Y7866191D01*
X8352381Y9390001D02*
X8352381Y8913810D01*
X8828571Y8866191D01*
X8780952Y8913810D01*
X8733333Y9009048D01*
X8733333Y9247144D01*
X8780952Y9342382D01*
X8828571Y9390001D01*
X8923810Y9437620D01*
X9161905Y9437620D01*
X9257143Y9390001D01*
X9304762Y9342382D01*
X9352381Y9247144D01*
X9352381Y9009048D01*
X9304762Y8913810D01*
X9257143Y8866191D01*
X8780952Y10009048D02*
X8733333Y9913810D01*
X8685714Y9866191D01*
X8590476Y9818572D01*
X8542857Y9818572D01*
X8447619Y9866191D01*
X8400000Y9913810D01*
X8352381Y10009048D01*
X8352381Y10199525D01*
X8400000Y10294763D01*
X8447619Y10342382D01*
X8542857Y10390001D01*
X8590476Y10390001D01*
X8685714Y10342382D01*
X8733333Y10294763D01*
X8780952Y10199525D01*
X8780952Y10009048D01*
X8828571Y9913810D01*
X8876190Y9866191D01*
X8971429Y9818572D01*
X9161905Y9818572D01*
X9257143Y9866191D01*
X9304762Y9913810D01*
X9352381Y10009048D01*
X9352381Y10199525D01*
X9304762Y10294763D01*
X9257143Y10342382D01*
X9161905Y10390001D01*
X8971429Y10390001D01*
X8876190Y10342382D01*
X8828571Y10294763D01*
X8780952Y10199525D01*
X8971429Y10818572D02*
X8971429Y11580477D01*
X9352381Y12056667D02*
X8352381Y12056667D01*
X9352381Y12628096D01*
X8352381Y12628096D01*
X897143Y13442619D02*
X992382Y13442619D01*
X1087620Y13395000D01*
X1135239Y13347381D01*
X1182858Y13252143D01*
X1230477Y13061667D01*
X1230477Y12823571D01*
X1182858Y12633095D01*
X1135239Y12537857D01*
X1087620Y12490238D01*
X992382Y12442619D01*
X897143Y12442619D01*
X801905Y12490238D01*
X754286Y12537857D01*
X706667Y12633095D01*
X659048Y12823571D01*
X659048Y13061667D01*
X706667Y13252143D01*
X754286Y13347381D01*
X801905Y13395000D01*
X897143Y13442619D01*
X1659048Y12537857D02*
X1706667Y12490238D01*
X1659048Y12442619D01*
X1611429Y12490238D01*
X1659048Y12537857D01*
X1659048Y12442619D01*
X2659048Y12442619D02*
X2087619Y12442619D01*
X2373333Y12442619D02*
X2373333Y13442619D01*
X2278095Y13299762D01*
X2182857Y13204524D01*
X2087619Y13156905D01*
X3516191Y13109286D02*
X3516191Y12442619D01*
X3087619Y13109286D02*
X3087619Y12585476D01*
X3135238Y12490238D01*
X3230476Y12442619D01*
X3373334Y12442619D01*
X3468572Y12490238D01*
X3516191Y12537857D01*
X4325715Y12966429D02*
X3992381Y12966429D01*
X3992381Y12442619D02*
X3992381Y13442619D01*
X4468572Y13442619D01*
M02*
