G04 #@! TF.FileFunction,Copper,L2,Bot,Signal*
%FSLAX46Y46*%
G04 Gerber Fmt 4.6, Leading zero omitted, Abs format (unit mm)*
G04 Created by KiCad (PCBNEW 4.0.2-stable) date Friday, April 10, 2020 'PMt' 07:46:05 PM*
%MOMM*%
G01*
G04 APERTURE LIST*
%ADD10C,0.100000*%
%ADD11C,0.152400*%
%ADD12R,2.032000X1.727200*%
%ADD13O,2.032000X1.727200*%
%ADD14C,0.609600*%
%ADD15C,0.254000*%
G04 APERTURE END LIST*
D10*
D11*
X1123905Y18103335D02*
X590571Y18103335D01*
X742952Y18103335D02*
X666762Y18065240D01*
X628667Y18027144D01*
X590571Y17950954D01*
X590571Y17874763D01*
X1123905Y17493811D02*
X1085810Y17570002D01*
X1047714Y17608097D01*
X971524Y17646192D01*
X742952Y17646192D01*
X666762Y17608097D01*
X628667Y17570002D01*
X590571Y17493811D01*
X590571Y17379525D01*
X628667Y17303335D01*
X666762Y17265240D01*
X742952Y17227144D01*
X971524Y17227144D01*
X1047714Y17265240D01*
X1085810Y17303335D01*
X1123905Y17379525D01*
X1123905Y17493811D01*
X1123905Y16884287D02*
X590571Y16884287D01*
X666762Y16884287D02*
X628667Y16846192D01*
X590571Y16770001D01*
X590571Y16655715D01*
X628667Y16579525D01*
X704857Y16541430D01*
X1123905Y16541430D01*
X704857Y16541430D02*
X628667Y16503334D01*
X590571Y16427144D01*
X590571Y16312858D01*
X628667Y16236668D01*
X704857Y16198573D01*
X1123905Y16198573D01*
X1085810Y15512858D02*
X1123905Y15589048D01*
X1123905Y15741429D01*
X1085810Y15817620D01*
X1009619Y15855715D01*
X704857Y15855715D01*
X628667Y15817620D01*
X590571Y15741429D01*
X590571Y15589048D01*
X628667Y15512858D01*
X704857Y15474763D01*
X781048Y15474763D01*
X857238Y15855715D01*
X1123905Y15017620D02*
X1085810Y15093811D01*
X1047714Y15131906D01*
X971524Y15170001D01*
X742952Y15170001D01*
X666762Y15131906D01*
X628667Y15093811D01*
X590571Y15017620D01*
X590571Y14903334D01*
X628667Y14827144D01*
X666762Y14789049D01*
X742952Y14750953D01*
X971524Y14750953D01*
X1047714Y14789049D01*
X1085810Y14827144D01*
X1123905Y14903334D01*
X1123905Y15017620D01*
X819143Y14408096D02*
X819143Y13798572D01*
X1123905Y13303334D02*
X1085810Y13379525D01*
X1047714Y13417620D01*
X971524Y13455715D01*
X742952Y13455715D01*
X666762Y13417620D01*
X628667Y13379525D01*
X590571Y13303334D01*
X590571Y13189048D01*
X628667Y13112858D01*
X666762Y13074763D01*
X742952Y13036667D01*
X971524Y13036667D01*
X1047714Y13074763D01*
X1085810Y13112858D01*
X1123905Y13189048D01*
X1123905Y13303334D01*
X590571Y12693810D02*
X1390571Y12693810D01*
X628667Y12693810D02*
X590571Y12617619D01*
X590571Y12465238D01*
X628667Y12389048D01*
X666762Y12350953D01*
X742952Y12312857D01*
X971524Y12312857D01*
X1047714Y12350953D01*
X1085810Y12389048D01*
X1123905Y12465238D01*
X1123905Y12617619D01*
X1085810Y12693810D01*
X1123905Y11627143D02*
X704857Y11627143D01*
X628667Y11665238D01*
X590571Y11741428D01*
X590571Y11893809D01*
X628667Y11970000D01*
X1085810Y11627143D02*
X1123905Y11703333D01*
X1123905Y11893809D01*
X1085810Y11970000D01*
X1009619Y12008095D01*
X933429Y12008095D01*
X857238Y11970000D01*
X819143Y11893809D01*
X819143Y11703333D01*
X781048Y11627143D01*
X1123905Y11246190D02*
X590571Y11246190D01*
X666762Y11246190D02*
X628667Y11208095D01*
X590571Y11131904D01*
X590571Y11017618D01*
X628667Y10941428D01*
X704857Y10903333D01*
X1123905Y10903333D01*
X704857Y10903333D02*
X628667Y10865237D01*
X590571Y10789047D01*
X590571Y10674761D01*
X628667Y10598571D01*
X704857Y10560476D01*
X1123905Y10560476D01*
X590571Y10179523D02*
X1390571Y10179523D01*
X628667Y10179523D02*
X590571Y10103332D01*
X590571Y9950951D01*
X628667Y9874761D01*
X666762Y9836666D01*
X742952Y9798570D01*
X971524Y9798570D01*
X1047714Y9836666D01*
X1085810Y9874761D01*
X1123905Y9950951D01*
X1123905Y10103332D01*
X1085810Y10179523D01*
X12172905Y18484286D02*
X11372905Y18484286D01*
X11372905Y18179524D01*
X11411000Y18103333D01*
X11449095Y18065238D01*
X11525286Y18027143D01*
X11639571Y18027143D01*
X11715762Y18065238D01*
X11753857Y18103333D01*
X11791952Y18179524D01*
X11791952Y18484286D01*
X12172905Y17265238D02*
X12172905Y17722381D01*
X12172905Y17493810D02*
X11372905Y17493810D01*
X11487190Y17570000D01*
X11563381Y17646191D01*
X11601476Y17722381D01*
X12172905Y16312857D02*
X11639571Y16312857D01*
X11372905Y16312857D02*
X11411000Y16350952D01*
X11449095Y16312857D01*
X11411000Y16274762D01*
X11372905Y16312857D01*
X11449095Y16312857D01*
X12172905Y15931905D02*
X11372905Y15931905D01*
X12172905Y15589048D02*
X11753857Y15589048D01*
X11677667Y15627143D01*
X11639571Y15703333D01*
X11639571Y15817619D01*
X11677667Y15893810D01*
X11715762Y15931905D01*
X12172905Y14865238D02*
X11753857Y14865238D01*
X11677667Y14903333D01*
X11639571Y14979523D01*
X11639571Y15131904D01*
X11677667Y15208095D01*
X12134810Y14865238D02*
X12172905Y14941428D01*
X12172905Y15131904D01*
X12134810Y15208095D01*
X12058619Y15246190D01*
X11982429Y15246190D01*
X11906238Y15208095D01*
X11868143Y15131904D01*
X11868143Y14941428D01*
X11830048Y14865238D01*
X12172905Y14484285D02*
X11639571Y14484285D01*
X11791952Y14484285D02*
X11715762Y14446190D01*
X11677667Y14408094D01*
X11639571Y14331904D01*
X11639571Y14255713D01*
X11639571Y14103333D02*
X11639571Y13798571D01*
X11372905Y13989047D02*
X12058619Y13989047D01*
X12134810Y13950952D01*
X12172905Y13874761D01*
X12172905Y13798571D01*
X11639571Y13608094D02*
X12172905Y13455713D01*
X11791952Y13303332D01*
X12172905Y13150951D01*
X11639571Y12998570D01*
X12172905Y12693809D02*
X11639571Y12693809D01*
X11372905Y12693809D02*
X11411000Y12731904D01*
X11449095Y12693809D01*
X11411000Y12655714D01*
X11372905Y12693809D01*
X11449095Y12693809D01*
X11639571Y11970000D02*
X12287190Y11970000D01*
X12363381Y12008095D01*
X12401476Y12046190D01*
X12439571Y12122381D01*
X12439571Y12236666D01*
X12401476Y12312857D01*
X12134810Y11970000D02*
X12172905Y12046190D01*
X12172905Y12198571D01*
X12134810Y12274762D01*
X12096714Y12312857D01*
X12020524Y12350952D01*
X11791952Y12350952D01*
X11715762Y12312857D01*
X11677667Y12274762D01*
X11639571Y12198571D01*
X11639571Y12046190D01*
X11677667Y11970000D01*
X11372905Y10941428D02*
X11525286Y11017618D01*
X11449095Y10636666D02*
X11411000Y10598571D01*
X11372905Y10522380D01*
X11372905Y10331904D01*
X11411000Y10255714D01*
X11449095Y10217618D01*
X11525286Y10179523D01*
X11601476Y10179523D01*
X11715762Y10217618D01*
X12172905Y10674761D01*
X12172905Y10179523D01*
X11372905Y9684285D02*
X11372905Y9608094D01*
X11411000Y9531904D01*
X11449095Y9493809D01*
X11525286Y9455713D01*
X11677667Y9417618D01*
X11868143Y9417618D01*
X12020524Y9455713D01*
X12096714Y9493809D01*
X12134810Y9531904D01*
X12172905Y9608094D01*
X12172905Y9684285D01*
X12134810Y9760475D01*
X12096714Y9798571D01*
X12020524Y9836666D01*
X11868143Y9874761D01*
X11677667Y9874761D01*
X11525286Y9836666D01*
X11449095Y9798571D01*
X11411000Y9760475D01*
X11372905Y9684285D01*
D12*
X2540000Y20320000D03*
D13*
X2540000Y22860000D03*
X2540000Y25400000D03*
D12*
X10160000Y20320000D03*
D13*
X10160000Y22860000D03*
X10160000Y25400000D03*
D12*
X2540000Y2540000D03*
D13*
X2540000Y5080000D03*
X2540000Y7620000D03*
D12*
X10160000Y2540000D03*
D13*
X10160000Y5080000D03*
X10160000Y7620000D03*
D14*
X889000Y9017000D03*
X7874000Y5969000D03*
X7620000Y1270000D03*
X7620000Y16510000D03*
X10160000Y16510000D03*
X2540000Y16510000D03*
D15*
G36*
X12073000Y19081163D02*
X10692200Y19081163D01*
X10692200Y8858838D01*
X12073000Y8858838D01*
X12073000Y627000D01*
X627000Y627000D01*
X627000Y2456950D01*
X1193800Y2456950D01*
X1193800Y1643878D01*
X1206489Y1580084D01*
X1231380Y1519992D01*
X1267517Y1465910D01*
X1313510Y1419917D01*
X1367592Y1383781D01*
X1427684Y1358889D01*
X1491478Y1346200D01*
X2456950Y1346200D01*
X2539500Y1428750D01*
X2539500Y2539500D01*
X2540500Y2539500D01*
X2540500Y1428750D01*
X2623050Y1346200D01*
X3588522Y1346200D01*
X3652316Y1358889D01*
X3712408Y1383781D01*
X3766490Y1419917D01*
X3812483Y1465910D01*
X3848620Y1519992D01*
X3873511Y1580084D01*
X3886200Y1643878D01*
X3886200Y2456950D01*
X8813800Y2456950D01*
X8813800Y1643878D01*
X8826489Y1580084D01*
X8851380Y1519992D01*
X8887517Y1465910D01*
X8933510Y1419917D01*
X8987592Y1383781D01*
X9047684Y1358889D01*
X9111478Y1346200D01*
X10076950Y1346200D01*
X10159500Y1428750D01*
X10159500Y2539500D01*
X10160500Y2539500D01*
X10160500Y1428750D01*
X10243050Y1346200D01*
X11208522Y1346200D01*
X11272316Y1358889D01*
X11332408Y1383781D01*
X11386490Y1419917D01*
X11432483Y1465910D01*
X11468620Y1519992D01*
X11493511Y1580084D01*
X11506200Y1643878D01*
X11506200Y2456950D01*
X11423650Y2539500D01*
X10160500Y2539500D01*
X10159500Y2539500D01*
X8896350Y2539500D01*
X8813800Y2456950D01*
X3886200Y2456950D01*
X3803650Y2539500D01*
X2540500Y2539500D01*
X2539500Y2539500D01*
X1276350Y2539500D01*
X1193800Y2456950D01*
X627000Y2456950D01*
X627000Y3436122D01*
X1193800Y3436122D01*
X1193800Y2623050D01*
X1276350Y2540500D01*
X2539500Y2540500D01*
X2539500Y3651250D01*
X2540500Y3651250D01*
X2540500Y2540500D01*
X3803650Y2540500D01*
X3886200Y2623050D01*
X3886200Y3436122D01*
X8813800Y3436122D01*
X8813800Y2623050D01*
X8896350Y2540500D01*
X10159500Y2540500D01*
X10159500Y3651250D01*
X10160500Y3651250D01*
X10160500Y2540500D01*
X11423650Y2540500D01*
X11506200Y2623050D01*
X11506200Y3436122D01*
X11493511Y3499916D01*
X11468620Y3560008D01*
X11432483Y3614090D01*
X11386490Y3660083D01*
X11332408Y3696219D01*
X11272316Y3721111D01*
X11208522Y3733800D01*
X10243050Y3733800D01*
X10160500Y3651250D01*
X10159500Y3651250D01*
X10076950Y3733800D01*
X9111478Y3733800D01*
X9047684Y3721111D01*
X8987592Y3696219D01*
X8933510Y3660083D01*
X8887517Y3614090D01*
X8851380Y3560008D01*
X8826489Y3499916D01*
X8813800Y3436122D01*
X3886200Y3436122D01*
X3873511Y3499916D01*
X3848620Y3560008D01*
X3812483Y3614090D01*
X3766490Y3660083D01*
X3712408Y3696219D01*
X3652316Y3721111D01*
X3588522Y3733800D01*
X2623050Y3733800D01*
X2540500Y3651250D01*
X2539500Y3651250D01*
X2456950Y3733800D01*
X1491478Y3733800D01*
X1427684Y3721111D01*
X1367592Y3696219D01*
X1313510Y3660083D01*
X1267517Y3614090D01*
X1231380Y3560008D01*
X1206489Y3499916D01*
X1193800Y3436122D01*
X627000Y3436122D01*
X627000Y5088334D01*
X1187315Y5088334D01*
X1208431Y4856304D01*
X1274214Y4632795D01*
X1382157Y4426319D01*
X1528149Y4244742D01*
X1706628Y4094980D01*
X1910798Y3982736D01*
X2132881Y3912287D01*
X2364418Y3886316D01*
X2381086Y3886200D01*
X2698914Y3886200D01*
X2930791Y3908936D01*
X3153836Y3976277D01*
X3359553Y4085659D01*
X3540106Y4232914D01*
X3688619Y4412436D01*
X3799434Y4617384D01*
X3868331Y4839953D01*
X3892685Y5071666D01*
X3891169Y5088334D01*
X8807315Y5088334D01*
X8828431Y4856304D01*
X8894214Y4632795D01*
X9002157Y4426319D01*
X9148149Y4244742D01*
X9326628Y4094980D01*
X9530798Y3982736D01*
X9752881Y3912287D01*
X9984418Y3886316D01*
X10001086Y3886200D01*
X10318914Y3886200D01*
X10550791Y3908936D01*
X10773836Y3976277D01*
X10979553Y4085659D01*
X11160106Y4232914D01*
X11308619Y4412436D01*
X11419434Y4617384D01*
X11488331Y4839953D01*
X11512685Y5071666D01*
X11491569Y5303696D01*
X11425786Y5527205D01*
X11317843Y5733681D01*
X11171851Y5915258D01*
X10993372Y6065020D01*
X10789202Y6177264D01*
X10567119Y6247713D01*
X10335582Y6273684D01*
X10318914Y6273800D01*
X10001086Y6273800D01*
X9769209Y6251064D01*
X9546164Y6183723D01*
X9340447Y6074341D01*
X9159894Y5927086D01*
X9011381Y5747564D01*
X8900566Y5542616D01*
X8831669Y5320047D01*
X8807315Y5088334D01*
X3891169Y5088334D01*
X3871569Y5303696D01*
X3805786Y5527205D01*
X3697843Y5733681D01*
X3551851Y5915258D01*
X3373372Y6065020D01*
X3169202Y6177264D01*
X2947119Y6247713D01*
X2715582Y6273684D01*
X2698914Y6273800D01*
X2381086Y6273800D01*
X2149209Y6251064D01*
X1926164Y6183723D01*
X1720447Y6074341D01*
X1539894Y5927086D01*
X1391381Y5747564D01*
X1280566Y5542616D01*
X1211669Y5320047D01*
X1187315Y5088334D01*
X627000Y5088334D01*
X627000Y7628334D01*
X1187315Y7628334D01*
X1208431Y7396304D01*
X1274214Y7172795D01*
X1382157Y6966319D01*
X1528149Y6784742D01*
X1706628Y6634980D01*
X1910798Y6522736D01*
X2132881Y6452287D01*
X2364418Y6426316D01*
X2381086Y6426200D01*
X2698914Y6426200D01*
X2930791Y6448936D01*
X3153836Y6516277D01*
X3359553Y6625659D01*
X3540106Y6772914D01*
X3688619Y6952436D01*
X3799434Y7157384D01*
X3868331Y7379953D01*
X3892685Y7611666D01*
X3891169Y7628334D01*
X8807315Y7628334D01*
X8828431Y7396304D01*
X8894214Y7172795D01*
X9002157Y6966319D01*
X9148149Y6784742D01*
X9326628Y6634980D01*
X9530798Y6522736D01*
X9752881Y6452287D01*
X9984418Y6426316D01*
X10001086Y6426200D01*
X10318914Y6426200D01*
X10550791Y6448936D01*
X10773836Y6516277D01*
X10979553Y6625659D01*
X11160106Y6772914D01*
X11308619Y6952436D01*
X11419434Y7157384D01*
X11488331Y7379953D01*
X11512685Y7611666D01*
X11491569Y7843696D01*
X11425786Y8067205D01*
X11317843Y8273681D01*
X11171851Y8455258D01*
X10993372Y8605020D01*
X10789202Y8717264D01*
X10567119Y8787713D01*
X10335582Y8813684D01*
X10318914Y8813800D01*
X10001086Y8813800D01*
X9769209Y8791064D01*
X9546164Y8723723D01*
X9340447Y8614341D01*
X9159894Y8467086D01*
X9011381Y8287564D01*
X8900566Y8082616D01*
X8831669Y7860047D01*
X8807315Y7628334D01*
X3891169Y7628334D01*
X3871569Y7843696D01*
X3805786Y8067205D01*
X3697843Y8273681D01*
X3551851Y8455258D01*
X3373372Y8605020D01*
X3169202Y8717264D01*
X2947119Y8787713D01*
X2715582Y8813684D01*
X2698914Y8813800D01*
X2381086Y8813800D01*
X2149209Y8791064D01*
X1926164Y8723723D01*
X1720447Y8614341D01*
X1539894Y8467086D01*
X1391381Y8287564D01*
X1280566Y8082616D01*
X1211669Y7860047D01*
X1187315Y7628334D01*
X627000Y7628334D01*
X627000Y9239789D01*
X1728400Y9239789D01*
X1728400Y18700211D01*
X627000Y18700211D01*
X627000Y20236950D01*
X1193800Y20236950D01*
X1193800Y19423878D01*
X1206489Y19360084D01*
X1231380Y19299992D01*
X1267517Y19245910D01*
X1313510Y19199917D01*
X1367592Y19163781D01*
X1427684Y19138889D01*
X1491478Y19126200D01*
X2456950Y19126200D01*
X2539500Y19208750D01*
X2539500Y20319500D01*
X2540500Y20319500D01*
X2540500Y19208750D01*
X2623050Y19126200D01*
X3588522Y19126200D01*
X3652316Y19138889D01*
X3712408Y19163781D01*
X3766490Y19199917D01*
X3812483Y19245910D01*
X3848620Y19299992D01*
X3873511Y19360084D01*
X3886200Y19423878D01*
X3886200Y20236950D01*
X8813800Y20236950D01*
X8813800Y19423878D01*
X8826489Y19360084D01*
X8851380Y19299992D01*
X8887517Y19245910D01*
X8933510Y19199917D01*
X8987592Y19163781D01*
X9047684Y19138889D01*
X9111478Y19126200D01*
X10076950Y19126200D01*
X10159500Y19208750D01*
X10159500Y20319500D01*
X10160500Y20319500D01*
X10160500Y19208750D01*
X10243050Y19126200D01*
X11208522Y19126200D01*
X11272316Y19138889D01*
X11332408Y19163781D01*
X11386490Y19199917D01*
X11432483Y19245910D01*
X11468620Y19299992D01*
X11493511Y19360084D01*
X11506200Y19423878D01*
X11506200Y20236950D01*
X11423650Y20319500D01*
X10160500Y20319500D01*
X10159500Y20319500D01*
X8896350Y20319500D01*
X8813800Y20236950D01*
X3886200Y20236950D01*
X3803650Y20319500D01*
X2540500Y20319500D01*
X2539500Y20319500D01*
X1276350Y20319500D01*
X1193800Y20236950D01*
X627000Y20236950D01*
X627000Y21216122D01*
X1193800Y21216122D01*
X1193800Y20403050D01*
X1276350Y20320500D01*
X2539500Y20320500D01*
X2539500Y21431250D01*
X2540500Y21431250D01*
X2540500Y20320500D01*
X3803650Y20320500D01*
X3886200Y20403050D01*
X3886200Y21216122D01*
X8813800Y21216122D01*
X8813800Y20403050D01*
X8896350Y20320500D01*
X10159500Y20320500D01*
X10159500Y21431250D01*
X10160500Y21431250D01*
X10160500Y20320500D01*
X11423650Y20320500D01*
X11506200Y20403050D01*
X11506200Y21216122D01*
X11493511Y21279916D01*
X11468620Y21340008D01*
X11432483Y21394090D01*
X11386490Y21440083D01*
X11332408Y21476219D01*
X11272316Y21501111D01*
X11208522Y21513800D01*
X10243050Y21513800D01*
X10160500Y21431250D01*
X10159500Y21431250D01*
X10076950Y21513800D01*
X9111478Y21513800D01*
X9047684Y21501111D01*
X8987592Y21476219D01*
X8933510Y21440083D01*
X8887517Y21394090D01*
X8851380Y21340008D01*
X8826489Y21279916D01*
X8813800Y21216122D01*
X3886200Y21216122D01*
X3873511Y21279916D01*
X3848620Y21340008D01*
X3812483Y21394090D01*
X3766490Y21440083D01*
X3712408Y21476219D01*
X3652316Y21501111D01*
X3588522Y21513800D01*
X2623050Y21513800D01*
X2540500Y21431250D01*
X2539500Y21431250D01*
X2456950Y21513800D01*
X1491478Y21513800D01*
X1427684Y21501111D01*
X1367592Y21476219D01*
X1313510Y21440083D01*
X1267517Y21394090D01*
X1231380Y21340008D01*
X1206489Y21279916D01*
X1193800Y21216122D01*
X627000Y21216122D01*
X627000Y22868334D01*
X1187315Y22868334D01*
X1208431Y22636304D01*
X1274214Y22412795D01*
X1382157Y22206319D01*
X1528149Y22024742D01*
X1706628Y21874980D01*
X1910798Y21762736D01*
X2132881Y21692287D01*
X2364418Y21666316D01*
X2381086Y21666200D01*
X2698914Y21666200D01*
X2930791Y21688936D01*
X3153836Y21756277D01*
X3359553Y21865659D01*
X3540106Y22012914D01*
X3688619Y22192436D01*
X3799434Y22397384D01*
X3868331Y22619953D01*
X3892685Y22851666D01*
X3891169Y22868334D01*
X8807315Y22868334D01*
X8828431Y22636304D01*
X8894214Y22412795D01*
X9002157Y22206319D01*
X9148149Y22024742D01*
X9326628Y21874980D01*
X9530798Y21762736D01*
X9752881Y21692287D01*
X9984418Y21666316D01*
X10001086Y21666200D01*
X10318914Y21666200D01*
X10550791Y21688936D01*
X10773836Y21756277D01*
X10979553Y21865659D01*
X11160106Y22012914D01*
X11308619Y22192436D01*
X11419434Y22397384D01*
X11488331Y22619953D01*
X11512685Y22851666D01*
X11491569Y23083696D01*
X11425786Y23307205D01*
X11317843Y23513681D01*
X11171851Y23695258D01*
X10993372Y23845020D01*
X10789202Y23957264D01*
X10567119Y24027713D01*
X10335582Y24053684D01*
X10318914Y24053800D01*
X10001086Y24053800D01*
X9769209Y24031064D01*
X9546164Y23963723D01*
X9340447Y23854341D01*
X9159894Y23707086D01*
X9011381Y23527564D01*
X8900566Y23322616D01*
X8831669Y23100047D01*
X8807315Y22868334D01*
X3891169Y22868334D01*
X3871569Y23083696D01*
X3805786Y23307205D01*
X3697843Y23513681D01*
X3551851Y23695258D01*
X3373372Y23845020D01*
X3169202Y23957264D01*
X2947119Y24027713D01*
X2715582Y24053684D01*
X2698914Y24053800D01*
X2381086Y24053800D01*
X2149209Y24031064D01*
X1926164Y23963723D01*
X1720447Y23854341D01*
X1539894Y23707086D01*
X1391381Y23527564D01*
X1280566Y23322616D01*
X1211669Y23100047D01*
X1187315Y22868334D01*
X627000Y22868334D01*
X627000Y25408334D01*
X1187315Y25408334D01*
X1208431Y25176304D01*
X1274214Y24952795D01*
X1382157Y24746319D01*
X1528149Y24564742D01*
X1706628Y24414980D01*
X1910798Y24302736D01*
X2132881Y24232287D01*
X2364418Y24206316D01*
X2381086Y24206200D01*
X2698914Y24206200D01*
X2930791Y24228936D01*
X3153836Y24296277D01*
X3359553Y24405659D01*
X3540106Y24552914D01*
X3688619Y24732436D01*
X3799434Y24937384D01*
X3868331Y25159953D01*
X3892685Y25391666D01*
X3891169Y25408334D01*
X8807315Y25408334D01*
X8828431Y25176304D01*
X8894214Y24952795D01*
X9002157Y24746319D01*
X9148149Y24564742D01*
X9326628Y24414980D01*
X9530798Y24302736D01*
X9752881Y24232287D01*
X9984418Y24206316D01*
X10001086Y24206200D01*
X10318914Y24206200D01*
X10550791Y24228936D01*
X10773836Y24296277D01*
X10979553Y24405659D01*
X11160106Y24552914D01*
X11308619Y24732436D01*
X11419434Y24937384D01*
X11488331Y25159953D01*
X11512685Y25391666D01*
X11491569Y25623696D01*
X11425786Y25847205D01*
X11317843Y26053681D01*
X11171851Y26235258D01*
X10993372Y26385020D01*
X10789202Y26497264D01*
X10567119Y26567713D01*
X10335582Y26593684D01*
X10318914Y26593800D01*
X10001086Y26593800D01*
X9769209Y26571064D01*
X9546164Y26503723D01*
X9340447Y26394341D01*
X9159894Y26247086D01*
X9011381Y26067564D01*
X8900566Y25862616D01*
X8831669Y25640047D01*
X8807315Y25408334D01*
X3891169Y25408334D01*
X3871569Y25623696D01*
X3805786Y25847205D01*
X3697843Y26053681D01*
X3551851Y26235258D01*
X3373372Y26385020D01*
X3169202Y26497264D01*
X2947119Y26567713D01*
X2715582Y26593684D01*
X2698914Y26593800D01*
X2381086Y26593800D01*
X2149209Y26571064D01*
X1926164Y26503723D01*
X1720447Y26394341D01*
X1539894Y26247086D01*
X1391381Y26067564D01*
X1280566Y25862616D01*
X1211669Y25640047D01*
X1187315Y25408334D01*
X627000Y25408334D01*
X627000Y27313000D01*
X12073000Y27313000D01*
X12073000Y19081163D01*
X12073000Y19081163D01*
G37*
X12073000Y19081163D02*
X10692200Y19081163D01*
X10692200Y8858838D01*
X12073000Y8858838D01*
X12073000Y627000D01*
X627000Y627000D01*
X627000Y2456950D01*
X1193800Y2456950D01*
X1193800Y1643878D01*
X1206489Y1580084D01*
X1231380Y1519992D01*
X1267517Y1465910D01*
X1313510Y1419917D01*
X1367592Y1383781D01*
X1427684Y1358889D01*
X1491478Y1346200D01*
X2456950Y1346200D01*
X2539500Y1428750D01*
X2539500Y2539500D01*
X2540500Y2539500D01*
X2540500Y1428750D01*
X2623050Y1346200D01*
X3588522Y1346200D01*
X3652316Y1358889D01*
X3712408Y1383781D01*
X3766490Y1419917D01*
X3812483Y1465910D01*
X3848620Y1519992D01*
X3873511Y1580084D01*
X3886200Y1643878D01*
X3886200Y2456950D01*
X8813800Y2456950D01*
X8813800Y1643878D01*
X8826489Y1580084D01*
X8851380Y1519992D01*
X8887517Y1465910D01*
X8933510Y1419917D01*
X8987592Y1383781D01*
X9047684Y1358889D01*
X9111478Y1346200D01*
X10076950Y1346200D01*
X10159500Y1428750D01*
X10159500Y2539500D01*
X10160500Y2539500D01*
X10160500Y1428750D01*
X10243050Y1346200D01*
X11208522Y1346200D01*
X11272316Y1358889D01*
X11332408Y1383781D01*
X11386490Y1419917D01*
X11432483Y1465910D01*
X11468620Y1519992D01*
X11493511Y1580084D01*
X11506200Y1643878D01*
X11506200Y2456950D01*
X11423650Y2539500D01*
X10160500Y2539500D01*
X10159500Y2539500D01*
X8896350Y2539500D01*
X8813800Y2456950D01*
X3886200Y2456950D01*
X3803650Y2539500D01*
X2540500Y2539500D01*
X2539500Y2539500D01*
X1276350Y2539500D01*
X1193800Y2456950D01*
X627000Y2456950D01*
X627000Y3436122D01*
X1193800Y3436122D01*
X1193800Y2623050D01*
X1276350Y2540500D01*
X2539500Y2540500D01*
X2539500Y3651250D01*
X2540500Y3651250D01*
X2540500Y2540500D01*
X3803650Y2540500D01*
X3886200Y2623050D01*
X3886200Y3436122D01*
X8813800Y3436122D01*
X8813800Y2623050D01*
X8896350Y2540500D01*
X10159500Y2540500D01*
X10159500Y3651250D01*
X10160500Y3651250D01*
X10160500Y2540500D01*
X11423650Y2540500D01*
X11506200Y2623050D01*
X11506200Y3436122D01*
X11493511Y3499916D01*
X11468620Y3560008D01*
X11432483Y3614090D01*
X11386490Y3660083D01*
X11332408Y3696219D01*
X11272316Y3721111D01*
X11208522Y3733800D01*
X10243050Y3733800D01*
X10160500Y3651250D01*
X10159500Y3651250D01*
X10076950Y3733800D01*
X9111478Y3733800D01*
X9047684Y3721111D01*
X8987592Y3696219D01*
X8933510Y3660083D01*
X8887517Y3614090D01*
X8851380Y3560008D01*
X8826489Y3499916D01*
X8813800Y3436122D01*
X3886200Y3436122D01*
X3873511Y3499916D01*
X3848620Y3560008D01*
X3812483Y3614090D01*
X3766490Y3660083D01*
X3712408Y3696219D01*
X3652316Y3721111D01*
X3588522Y3733800D01*
X2623050Y3733800D01*
X2540500Y3651250D01*
X2539500Y3651250D01*
X2456950Y3733800D01*
X1491478Y3733800D01*
X1427684Y3721111D01*
X1367592Y3696219D01*
X1313510Y3660083D01*
X1267517Y3614090D01*
X1231380Y3560008D01*
X1206489Y3499916D01*
X1193800Y3436122D01*
X627000Y3436122D01*
X627000Y5088334D01*
X1187315Y5088334D01*
X1208431Y4856304D01*
X1274214Y4632795D01*
X1382157Y4426319D01*
X1528149Y4244742D01*
X1706628Y4094980D01*
X1910798Y3982736D01*
X2132881Y3912287D01*
X2364418Y3886316D01*
X2381086Y3886200D01*
X2698914Y3886200D01*
X2930791Y3908936D01*
X3153836Y3976277D01*
X3359553Y4085659D01*
X3540106Y4232914D01*
X3688619Y4412436D01*
X3799434Y4617384D01*
X3868331Y4839953D01*
X3892685Y5071666D01*
X3891169Y5088334D01*
X8807315Y5088334D01*
X8828431Y4856304D01*
X8894214Y4632795D01*
X9002157Y4426319D01*
X9148149Y4244742D01*
X9326628Y4094980D01*
X9530798Y3982736D01*
X9752881Y3912287D01*
X9984418Y3886316D01*
X10001086Y3886200D01*
X10318914Y3886200D01*
X10550791Y3908936D01*
X10773836Y3976277D01*
X10979553Y4085659D01*
X11160106Y4232914D01*
X11308619Y4412436D01*
X11419434Y4617384D01*
X11488331Y4839953D01*
X11512685Y5071666D01*
X11491569Y5303696D01*
X11425786Y5527205D01*
X11317843Y5733681D01*
X11171851Y5915258D01*
X10993372Y6065020D01*
X10789202Y6177264D01*
X10567119Y6247713D01*
X10335582Y6273684D01*
X10318914Y6273800D01*
X10001086Y6273800D01*
X9769209Y6251064D01*
X9546164Y6183723D01*
X9340447Y6074341D01*
X9159894Y5927086D01*
X9011381Y5747564D01*
X8900566Y5542616D01*
X8831669Y5320047D01*
X8807315Y5088334D01*
X3891169Y5088334D01*
X3871569Y5303696D01*
X3805786Y5527205D01*
X3697843Y5733681D01*
X3551851Y5915258D01*
X3373372Y6065020D01*
X3169202Y6177264D01*
X2947119Y6247713D01*
X2715582Y6273684D01*
X2698914Y6273800D01*
X2381086Y6273800D01*
X2149209Y6251064D01*
X1926164Y6183723D01*
X1720447Y6074341D01*
X1539894Y5927086D01*
X1391381Y5747564D01*
X1280566Y5542616D01*
X1211669Y5320047D01*
X1187315Y5088334D01*
X627000Y5088334D01*
X627000Y7628334D01*
X1187315Y7628334D01*
X1208431Y7396304D01*
X1274214Y7172795D01*
X1382157Y6966319D01*
X1528149Y6784742D01*
X1706628Y6634980D01*
X1910798Y6522736D01*
X2132881Y6452287D01*
X2364418Y6426316D01*
X2381086Y6426200D01*
X2698914Y6426200D01*
X2930791Y6448936D01*
X3153836Y6516277D01*
X3359553Y6625659D01*
X3540106Y6772914D01*
X3688619Y6952436D01*
X3799434Y7157384D01*
X3868331Y7379953D01*
X3892685Y7611666D01*
X3891169Y7628334D01*
X8807315Y7628334D01*
X8828431Y7396304D01*
X8894214Y7172795D01*
X9002157Y6966319D01*
X9148149Y6784742D01*
X9326628Y6634980D01*
X9530798Y6522736D01*
X9752881Y6452287D01*
X9984418Y6426316D01*
X10001086Y6426200D01*
X10318914Y6426200D01*
X10550791Y6448936D01*
X10773836Y6516277D01*
X10979553Y6625659D01*
X11160106Y6772914D01*
X11308619Y6952436D01*
X11419434Y7157384D01*
X11488331Y7379953D01*
X11512685Y7611666D01*
X11491569Y7843696D01*
X11425786Y8067205D01*
X11317843Y8273681D01*
X11171851Y8455258D01*
X10993372Y8605020D01*
X10789202Y8717264D01*
X10567119Y8787713D01*
X10335582Y8813684D01*
X10318914Y8813800D01*
X10001086Y8813800D01*
X9769209Y8791064D01*
X9546164Y8723723D01*
X9340447Y8614341D01*
X9159894Y8467086D01*
X9011381Y8287564D01*
X8900566Y8082616D01*
X8831669Y7860047D01*
X8807315Y7628334D01*
X3891169Y7628334D01*
X3871569Y7843696D01*
X3805786Y8067205D01*
X3697843Y8273681D01*
X3551851Y8455258D01*
X3373372Y8605020D01*
X3169202Y8717264D01*
X2947119Y8787713D01*
X2715582Y8813684D01*
X2698914Y8813800D01*
X2381086Y8813800D01*
X2149209Y8791064D01*
X1926164Y8723723D01*
X1720447Y8614341D01*
X1539894Y8467086D01*
X1391381Y8287564D01*
X1280566Y8082616D01*
X1211669Y7860047D01*
X1187315Y7628334D01*
X627000Y7628334D01*
X627000Y9239789D01*
X1728400Y9239789D01*
X1728400Y18700211D01*
X627000Y18700211D01*
X627000Y20236950D01*
X1193800Y20236950D01*
X1193800Y19423878D01*
X1206489Y19360084D01*
X1231380Y19299992D01*
X1267517Y19245910D01*
X1313510Y19199917D01*
X1367592Y19163781D01*
X1427684Y19138889D01*
X1491478Y19126200D01*
X2456950Y19126200D01*
X2539500Y19208750D01*
X2539500Y20319500D01*
X2540500Y20319500D01*
X2540500Y19208750D01*
X2623050Y19126200D01*
X3588522Y19126200D01*
X3652316Y19138889D01*
X3712408Y19163781D01*
X3766490Y19199917D01*
X3812483Y19245910D01*
X3848620Y19299992D01*
X3873511Y19360084D01*
X3886200Y19423878D01*
X3886200Y20236950D01*
X8813800Y20236950D01*
X8813800Y19423878D01*
X8826489Y19360084D01*
X8851380Y19299992D01*
X8887517Y19245910D01*
X8933510Y19199917D01*
X8987592Y19163781D01*
X9047684Y19138889D01*
X9111478Y19126200D01*
X10076950Y19126200D01*
X10159500Y19208750D01*
X10159500Y20319500D01*
X10160500Y20319500D01*
X10160500Y19208750D01*
X10243050Y19126200D01*
X11208522Y19126200D01*
X11272316Y19138889D01*
X11332408Y19163781D01*
X11386490Y19199917D01*
X11432483Y19245910D01*
X11468620Y19299992D01*
X11493511Y19360084D01*
X11506200Y19423878D01*
X11506200Y20236950D01*
X11423650Y20319500D01*
X10160500Y20319500D01*
X10159500Y20319500D01*
X8896350Y20319500D01*
X8813800Y20236950D01*
X3886200Y20236950D01*
X3803650Y20319500D01*
X2540500Y20319500D01*
X2539500Y20319500D01*
X1276350Y20319500D01*
X1193800Y20236950D01*
X627000Y20236950D01*
X627000Y21216122D01*
X1193800Y21216122D01*
X1193800Y20403050D01*
X1276350Y20320500D01*
X2539500Y20320500D01*
X2539500Y21431250D01*
X2540500Y21431250D01*
X2540500Y20320500D01*
X3803650Y20320500D01*
X3886200Y20403050D01*
X3886200Y21216122D01*
X8813800Y21216122D01*
X8813800Y20403050D01*
X8896350Y20320500D01*
X10159500Y20320500D01*
X10159500Y21431250D01*
X10160500Y21431250D01*
X10160500Y20320500D01*
X11423650Y20320500D01*
X11506200Y20403050D01*
X11506200Y21216122D01*
X11493511Y21279916D01*
X11468620Y21340008D01*
X11432483Y21394090D01*
X11386490Y21440083D01*
X11332408Y21476219D01*
X11272316Y21501111D01*
X11208522Y21513800D01*
X10243050Y21513800D01*
X10160500Y21431250D01*
X10159500Y21431250D01*
X10076950Y21513800D01*
X9111478Y21513800D01*
X9047684Y21501111D01*
X8987592Y21476219D01*
X8933510Y21440083D01*
X8887517Y21394090D01*
X8851380Y21340008D01*
X8826489Y21279916D01*
X8813800Y21216122D01*
X3886200Y21216122D01*
X3873511Y21279916D01*
X3848620Y21340008D01*
X3812483Y21394090D01*
X3766490Y21440083D01*
X3712408Y21476219D01*
X3652316Y21501111D01*
X3588522Y21513800D01*
X2623050Y21513800D01*
X2540500Y21431250D01*
X2539500Y21431250D01*
X2456950Y21513800D01*
X1491478Y21513800D01*
X1427684Y21501111D01*
X1367592Y21476219D01*
X1313510Y21440083D01*
X1267517Y21394090D01*
X1231380Y21340008D01*
X1206489Y21279916D01*
X1193800Y21216122D01*
X627000Y21216122D01*
X627000Y22868334D01*
X1187315Y22868334D01*
X1208431Y22636304D01*
X1274214Y22412795D01*
X1382157Y22206319D01*
X1528149Y22024742D01*
X1706628Y21874980D01*
X1910798Y21762736D01*
X2132881Y21692287D01*
X2364418Y21666316D01*
X2381086Y21666200D01*
X2698914Y21666200D01*
X2930791Y21688936D01*
X3153836Y21756277D01*
X3359553Y21865659D01*
X3540106Y22012914D01*
X3688619Y22192436D01*
X3799434Y22397384D01*
X3868331Y22619953D01*
X3892685Y22851666D01*
X3891169Y22868334D01*
X8807315Y22868334D01*
X8828431Y22636304D01*
X8894214Y22412795D01*
X9002157Y22206319D01*
X9148149Y22024742D01*
X9326628Y21874980D01*
X9530798Y21762736D01*
X9752881Y21692287D01*
X9984418Y21666316D01*
X10001086Y21666200D01*
X10318914Y21666200D01*
X10550791Y21688936D01*
X10773836Y21756277D01*
X10979553Y21865659D01*
X11160106Y22012914D01*
X11308619Y22192436D01*
X11419434Y22397384D01*
X11488331Y22619953D01*
X11512685Y22851666D01*
X11491569Y23083696D01*
X11425786Y23307205D01*
X11317843Y23513681D01*
X11171851Y23695258D01*
X10993372Y23845020D01*
X10789202Y23957264D01*
X10567119Y24027713D01*
X10335582Y24053684D01*
X10318914Y24053800D01*
X10001086Y24053800D01*
X9769209Y24031064D01*
X9546164Y23963723D01*
X9340447Y23854341D01*
X9159894Y23707086D01*
X9011381Y23527564D01*
X8900566Y23322616D01*
X8831669Y23100047D01*
X8807315Y22868334D01*
X3891169Y22868334D01*
X3871569Y23083696D01*
X3805786Y23307205D01*
X3697843Y23513681D01*
X3551851Y23695258D01*
X3373372Y23845020D01*
X3169202Y23957264D01*
X2947119Y24027713D01*
X2715582Y24053684D01*
X2698914Y24053800D01*
X2381086Y24053800D01*
X2149209Y24031064D01*
X1926164Y23963723D01*
X1720447Y23854341D01*
X1539894Y23707086D01*
X1391381Y23527564D01*
X1280566Y23322616D01*
X1211669Y23100047D01*
X1187315Y22868334D01*
X627000Y22868334D01*
X627000Y25408334D01*
X1187315Y25408334D01*
X1208431Y25176304D01*
X1274214Y24952795D01*
X1382157Y24746319D01*
X1528149Y24564742D01*
X1706628Y24414980D01*
X1910798Y24302736D01*
X2132881Y24232287D01*
X2364418Y24206316D01*
X2381086Y24206200D01*
X2698914Y24206200D01*
X2930791Y24228936D01*
X3153836Y24296277D01*
X3359553Y24405659D01*
X3540106Y24552914D01*
X3688619Y24732436D01*
X3799434Y24937384D01*
X3868331Y25159953D01*
X3892685Y25391666D01*
X3891169Y25408334D01*
X8807315Y25408334D01*
X8828431Y25176304D01*
X8894214Y24952795D01*
X9002157Y24746319D01*
X9148149Y24564742D01*
X9326628Y24414980D01*
X9530798Y24302736D01*
X9752881Y24232287D01*
X9984418Y24206316D01*
X10001086Y24206200D01*
X10318914Y24206200D01*
X10550791Y24228936D01*
X10773836Y24296277D01*
X10979553Y24405659D01*
X11160106Y24552914D01*
X11308619Y24732436D01*
X11419434Y24937384D01*
X11488331Y25159953D01*
X11512685Y25391666D01*
X11491569Y25623696D01*
X11425786Y25847205D01*
X11317843Y26053681D01*
X11171851Y26235258D01*
X10993372Y26385020D01*
X10789202Y26497264D01*
X10567119Y26567713D01*
X10335582Y26593684D01*
X10318914Y26593800D01*
X10001086Y26593800D01*
X9769209Y26571064D01*
X9546164Y26503723D01*
X9340447Y26394341D01*
X9159894Y26247086D01*
X9011381Y26067564D01*
X8900566Y25862616D01*
X8831669Y25640047D01*
X8807315Y25408334D01*
X3891169Y25408334D01*
X3871569Y25623696D01*
X3805786Y25847205D01*
X3697843Y26053681D01*
X3551851Y26235258D01*
X3373372Y26385020D01*
X3169202Y26497264D01*
X2947119Y26567713D01*
X2715582Y26593684D01*
X2698914Y26593800D01*
X2381086Y26593800D01*
X2149209Y26571064D01*
X1926164Y26503723D01*
X1720447Y26394341D01*
X1539894Y26247086D01*
X1391381Y26067564D01*
X1280566Y25862616D01*
X1211669Y25640047D01*
X1187315Y25408334D01*
X627000Y25408334D01*
X627000Y27313000D01*
X12073000Y27313000D01*
X12073000Y19081163D01*
M02*
