G04 #@! TF.FileFunction,Copper,L1,Top,Signal*
%FSLAX46Y46*%
G04 Gerber Fmt 4.6, Leading zero omitted, Abs format (unit mm)*
G04 Created by KiCad (PCBNEW 4.0.2-stable) date Friday, April 10, 2020 'PMt' 07:46:05 PM*
%MOMM*%
G01*
G04 APERTURE LIST*
%ADD10C,0.100000*%
%ADD11R,1.250000X1.000000*%
%ADD12R,2.032000X1.727200*%
%ADD13O,2.032000X1.727200*%
%ADD14R,1.300000X0.700000*%
%ADD15R,1.700000X0.900000*%
%ADD16R,0.400000X1.100000*%
%ADD17R,1.000000X1.250000*%
%ADD18C,0.609600*%
%ADD19C,0.609600*%
%ADD20C,0.457200*%
%ADD21C,0.254000*%
G04 APERTURE END LIST*
D10*
D11*
X2540000Y13605000D03*
X2540000Y15605000D03*
X10160000Y13605000D03*
X10160000Y15605000D03*
D12*
X2540000Y20320000D03*
D13*
X2540000Y22860000D03*
X2540000Y25400000D03*
D12*
X10160000Y20320000D03*
D13*
X10160000Y22860000D03*
X10160000Y25400000D03*
D12*
X2540000Y2540000D03*
D13*
X2540000Y5080000D03*
X2540000Y7620000D03*
D12*
X10160000Y2540000D03*
D13*
X10160000Y5080000D03*
X10160000Y7620000D03*
D14*
X5080000Y18100000D03*
X5080000Y20000000D03*
X7620000Y18100000D03*
X7620000Y20000000D03*
D15*
X5080000Y25760000D03*
X5080000Y22860000D03*
X7620000Y25760000D03*
X7620000Y22860000D03*
D14*
X5080000Y2225000D03*
X5080000Y4125000D03*
X7620000Y4125000D03*
X7620000Y2225000D03*
X5080000Y15555000D03*
X5080000Y13655000D03*
X7620000Y13655000D03*
X7620000Y15555000D03*
D16*
X5375000Y6740000D03*
X6025000Y6740000D03*
X6675000Y6740000D03*
X7325000Y6740000D03*
X7325000Y11040000D03*
X6675000Y11040000D03*
X6025000Y11040000D03*
X5375000Y11040000D03*
D17*
X3540000Y10795000D03*
X1540000Y10795000D03*
D18*
X889000Y9017000D03*
X7874000Y5969000D03*
X7620000Y1270000D03*
X7620000Y16510000D03*
X10160000Y16510000D03*
X2540000Y16510000D03*
D19*
X5080000Y22860000D02*
X5080000Y20000000D01*
X2540000Y22860000D02*
X5080000Y22860000D01*
D20*
X1540000Y10795000D02*
X1540000Y9668000D01*
X1540000Y9668000D02*
X889000Y9017000D01*
D21*
X7325000Y6740000D02*
X7325000Y6518000D01*
X7325000Y6518000D02*
X7874000Y5969000D01*
X7620000Y2225000D02*
X7620000Y1270000D01*
X7620000Y15555000D02*
X7620000Y16510000D01*
X10160000Y15605000D02*
X10160000Y16510000D01*
X2540000Y15605000D02*
X2540000Y16510000D01*
D19*
X7620000Y22860000D02*
X10160000Y22860000D01*
X7620000Y20000000D02*
X7620000Y22860000D01*
D21*
X6675000Y6740000D02*
X6675000Y7544000D01*
X5202010Y9016990D02*
X3690088Y9016990D01*
X3690088Y9016990D02*
X2540000Y10167078D01*
X2540000Y10167078D02*
X2540000Y11346564D01*
X6675000Y7544000D02*
X5202010Y9016990D01*
X2540000Y11346564D02*
X1519000Y12367564D01*
X1519000Y12367564D02*
X1519000Y12700000D01*
X1519000Y12700000D02*
X635000Y13584000D01*
X1519000Y12709000D02*
X1519000Y12700000D01*
X2540000Y13605000D02*
X2415000Y13605000D01*
X2415000Y13605000D02*
X1519000Y12709000D01*
X635000Y13584000D02*
X635000Y23647400D01*
X2387600Y25400000D02*
X2540000Y25400000D01*
X635000Y23647400D02*
X2387600Y25400000D01*
D19*
X2540000Y25400000D02*
X4720000Y25400000D01*
X4720000Y25400000D02*
X5080000Y25760000D01*
D21*
X8254000Y12319000D02*
X8749000Y12319000D01*
X8749000Y12319000D02*
X10035000Y13605000D01*
X10035000Y13605000D02*
X10160000Y13605000D01*
X7325000Y11390000D02*
X8254000Y12319000D01*
X12065000Y15367000D02*
X12065000Y23647400D01*
X10160000Y13605000D02*
X10285000Y13605000D01*
X12047000Y15367000D02*
X12065000Y15367000D01*
X10285000Y13605000D02*
X12047000Y15367000D01*
X7325000Y11040000D02*
X7325000Y11390000D01*
X12065000Y23647400D02*
X10312400Y25400000D01*
X10312400Y25400000D02*
X10160000Y25400000D01*
D19*
X10160000Y25400000D02*
X7980000Y25400000D01*
X7980000Y25400000D02*
X7620000Y25760000D01*
D20*
X5375000Y11770000D02*
X5165212Y11979788D01*
X5165212Y11979788D02*
X3642588Y11979788D01*
X5375000Y11040000D02*
X5375000Y11770000D01*
X3540000Y10795000D02*
X3540000Y11877200D01*
X3540000Y11877200D02*
X3642588Y11979788D01*
X3642588Y11979788D02*
X3642588Y12115212D01*
X5080000Y18100000D02*
X7620000Y18100000D01*
X5375000Y11040000D02*
X5375000Y10032800D01*
X5375000Y10032800D02*
X8686800Y6721000D01*
X8686800Y6721000D02*
X8686800Y6400800D01*
X8686800Y6400800D02*
X10007600Y5080000D01*
X10007600Y5080000D02*
X10160000Y5080000D01*
X5080000Y18100000D02*
X3642588Y16662588D01*
X3642588Y16662588D02*
X3642588Y12115212D01*
D21*
X5375000Y6740000D02*
X3420000Y6740000D01*
X3420000Y6740000D02*
X2540000Y7620000D01*
X5080000Y2225000D02*
X4780000Y2225000D01*
X5375000Y5936000D02*
X5375000Y6740000D01*
X4780000Y2225000D02*
X4150599Y2854401D01*
X4150599Y2854401D02*
X4150599Y4711599D01*
X4150599Y4711599D02*
X5375000Y5936000D01*
X6025000Y10485000D02*
X6025000Y11040000D01*
X8890000Y7620000D02*
X6025000Y10485000D01*
X10160000Y7620000D02*
X8890000Y7620000D01*
X5169000Y12700000D02*
X4532078Y12700000D01*
X4532078Y12700000D02*
X4150599Y13081479D01*
X4150599Y13081479D02*
X4150599Y14925599D01*
X4150599Y14925599D02*
X4780000Y15555000D01*
X4780000Y15555000D02*
X5080000Y15555000D01*
X6025000Y11040000D02*
X6025000Y11844000D01*
X6025000Y11844000D02*
X5169000Y12700000D01*
X7620000Y4125000D02*
X5080000Y4125000D01*
X5080000Y4125000D02*
X5080000Y4729000D01*
X5080000Y4729000D02*
X6025000Y5674000D01*
X6025000Y5674000D02*
X6025000Y5936000D01*
X6025000Y5936000D02*
X6025000Y6740000D01*
X5080000Y13655000D02*
X7620000Y13655000D01*
X7620000Y13655000D02*
X7620000Y13051000D01*
X7620000Y13051000D02*
X6675000Y12106000D01*
X6675000Y12106000D02*
X6675000Y11844000D01*
X6675000Y11844000D02*
X6675000Y11040000D01*
M02*
